<svg xmlns="http://www.w3.org/2000/svg" xmlns:xlink="http://www.w3.org/1999/xlink" width="51.433" height="20" viewBox="0 0 51.433 20">
  <defs>
    <linearGradient id="linear-gradient" x1="0.5" x2="0.5" y2="1" gradientUnits="objectBoundingBox">
      <stop offset="0" stop-color="#face48"/>
      <stop offset="0.498" stop-color="#ffee1d"/>
      <stop offset="1" stop-color="#face48"/>
    </linearGradient>
  </defs>
  <g id="Group_5788" data-name="Group 5788" transform="translate(-0.186)">
    <g id="Path_2759" data-name="Path 2759" transform="translate(6 2)" fill="#ffffc7">
      <path d="M 35.56177520751953 17.5 L 10.24878787994385 17.5 L 3.914005041122437 14.31012153625488 L 3.914005041122437 11.69237995147705 L 3.914005041122437 11.64702987670898 L 3.905845165252686 11.60241985321045 L 2.210127592086792 2.331272125244141 L 3.68184757232666 0.5 L 35.56177520751953 0.5 C 40.83160400390625 0.5 45.11892318725586 4.313079833984375 45.11892318725586 9 C 45.11892318725586 13.68692016601562 40.83160400390625 17.5 35.56177520751953 17.5 Z" stroke="none"/>
      <path d="M 3.921470642089844 1 L 2.743106842041016 2.466246604919434 L 4.414005279541016 11.60167980194092 L 4.414005279541016 14.00207805633545 L 10.36758041381836 17 L 35.56177520751953 17 C 40.55590438842773 17 44.61892700195312 13.41121006011963 44.61892700195312 9 C 44.61892700195312 4.588789939880371 40.55590438842773 1 35.56177520751953 1 L 3.921470642089844 1 M 3.442214965820312 0 L 35.56177520751953 0 C 41.11618423461914 0 45.61892700195312 4.029439926147461 45.61892700195312 9 C 45.61892700195312 13.97056007385254 41.11618423461914 18 35.56177520751953 18 L 10.1300048828125 18 L 3.414005279541016 14.61816024780273 L 3.414005279541016 11.69237995147705 L 1.677146911621094 2.196290016174316 L 3.442214965820312 0 Z" stroke="none" fill="#fcdb38"/>
    </g>
    <path id="Polygon_17" data-name="Polygon 17" d="M10,0l3.5,5.99L20,7.639,15.663,12.99,16.18,20,10,17.317,3.82,20l.517-7.01L0,7.639,6.5,5.99Z" transform="translate(0.186)" fill="url(#linear-gradient)"/>
  </g>
</svg>
