<svg id="undraw_add_friends_re_3xte_1_" data-name="undraw_add_friends_re_3xte (1)" xmlns="http://www.w3.org/2000/svg" width="386.581" height="338.956" viewBox="0 0 386.581 338.956">
  <path id="Path_339" data-name="Path 339" d="M819.918,175.192h-1.86v-51.02a29.529,29.529,0,0,0-29.529-29.529H680.434a29.529,29.529,0,0,0-29.529,29.529v279.9A29.529,29.529,0,0,0,680.434,433.6H788.528a29.529,29.529,0,0,0,29.529-29.529V211.509h1.86Z" transform="translate(-433.337 -94.644)" fill="#3f3d56"/>
  <path id="Path_340" data-name="Path 340" d="M818.647,127.853V411.706A22.4,22.4,0,0,1,796.262,434.1H685.947a22.4,22.4,0,0,1-22.4-22.4V127.853a22.4,22.4,0,0,1,22.4-22.392h13.381a10.649,10.649,0,0,0,9.851,14.661h62.891a10.649,10.649,0,0,0,9.851-14.661h14.334a22.4,22.4,0,0,1,22.392,22.384Z" transform="translate(-439.948 -100.302)" fill="#fff"/>
  <path id="Path_45" data-name="Path 45" d="M776.671,286.6A47.359,47.359,0,0,1,729.3,239.259v-.042c0-.1,0-.2.006-.3a47.375,47.375,0,1,1,47.373,47.68h0Zm0-93.757A46.478,46.478,0,0,0,730.3,238.946c-.005.106-.005.191-.005.271a46.385,46.385,0,1,0,46.385-46.379Z" transform="translate(-474.341 -145.485)" fill="#e6e6e6"/>
  <path id="Path_39" data-name="Path 39" d="M821.851,464.309H723.825a1.817,1.817,0,0,1-1.815-1.815V438.179a1.817,1.817,0,0,1,1.815-1.815h98.025a1.818,1.818,0,0,1,1.815,1.815v24.316a1.818,1.818,0,0,1-1.815,1.815Zm-98.025-27.22a1.09,1.09,0,0,0-1.089,1.089v24.316a1.09,1.09,0,0,0,1.089,1.089h98.025a1.09,1.09,0,0,0,1.089-1.089V438.179a1.09,1.09,0,0,0-1.089-1.089Z" transform="translate(-470.53 -273.389)" fill="#e6e6e6"/>
  <path id="Path_40" data-name="Path 40" d="M787.986,455a1.271,1.271,0,0,0,0,2.542h59.9a1.271,1.271,0,0,0,.1-2.54h-60Z" transform="translate(-504.376 -283.14)" fill="#e6e6e6"/>
  <path id="Path_41" data-name="Path 41" d="M787.986,470.99a1.271,1.271,0,0,0,0,2.542h59.9a1.271,1.271,0,0,0,.1-2.54h-60Z" transform="translate(-504.376 -291.502)" fill="#e6e6e6"/>
  <path id="Path_42" data-name="Path 42" d="M821.851,549.569H723.825a1.817,1.817,0,0,1-1.815-1.815V523.439a1.817,1.817,0,0,1,1.815-1.815h98.025a1.818,1.818,0,0,1,1.815,1.815v24.316a1.817,1.817,0,0,1-1.815,1.815Zm-98.025-27.22a1.09,1.09,0,0,0-1.089,1.089v24.316a1.09,1.09,0,0,0,1.089,1.089h98.025a1.09,1.09,0,0,0,1.089-1.089V523.439a1.09,1.09,0,0,0-1.089-1.089Z" transform="translate(-470.53 -317.987)" fill="#e6e6e6"/>
  <path id="Path_43" data-name="Path 43" d="M787.986,540.261a1.271,1.271,0,0,0,0,2.542h59.9a1.271,1.271,0,1,0,.041-2.541H787.986Z" transform="translate(-504.376 -327.735)" fill="#e6e6e6"/>
  <path id="Path_44" data-name="Path 44" d="M787.986,556.251a1.271,1.271,0,0,0,0,2.542h59.9a1.271,1.271,0,0,0,.041-2.541H787.986Z" transform="translate(-504.376 -336.099)" fill="#e6e6e6"/>
  <path id="Path_39-2" data-name="Path 39-2" d="M821.851,634.827H723.825a1.817,1.817,0,0,1-1.815-1.815V608.7a1.817,1.817,0,0,1,1.815-1.815h98.025a1.818,1.818,0,0,1,1.815,1.815v24.316a1.817,1.817,0,0,1-1.815,1.815Zm-98.025-27.22a1.09,1.09,0,0,0-1.089,1.089v24.316a1.09,1.09,0,0,0,1.089,1.089h98.025a1.09,1.09,0,0,0,1.089-1.089V608.7a1.09,1.09,0,0,0-1.089-1.089Z" transform="translate(-470.53 -362.583)" fill="#e6e6e6"/>
  <path id="Path_40-2" data-name="Path 40-2" d="M787.986,625.522a1.271,1.271,0,0,0,0,2.542h59.9a1.271,1.271,0,0,0,.1-2.54h-60Z" transform="translate(-504.376 -372.333)" fill="#e6e6e6"/>
  <path id="Path_41-2" data-name="Path 41-2" d="M787.986,641.508a1.271,1.271,0,0,0,0,2.542h59.9a1.271,1.271,0,0,0,.1-2.54h-60Z" transform="translate(-504.376 -380.696)" fill="#e6e6e6"/>
  <path id="Path_1221" data-name="Path 1221" d="M827.188,273.612H813.372V259.8h-2.3v13.817H797.252v2.3h13.816v13.817h2.3V275.915h13.816Z" transform="translate(-509.887 -181.031)" fill="#2f77b6"/>
  <g id="Group_76" data-name="Group 76" transform="translate(64.435 73.443)">
    <path id="Path_1236" data-name="Path 1236" d="M398.617,653.079s-11.3,12.373-12.911,40.885-2.152,31.74-2.152,31.74H423.9l7.528-19.365,8.609,19.363h38.2s4.3-59.176,0-60.79S398.617,653.079,398.617,653.079Z" transform="translate(-357.927 -460.19)" fill="#2f2e41"/>
    <circle id="Ellipse_232" data-name="Ellipse 232" cx="19.366" cy="19.366" r="19.366" transform="translate(75.388 8.635)" fill="#ffb8b8"/>
    <path id="Path_1238" data-name="Path 1238" d="M652.567,554.5l-29.588-53.8-17.217-27.974,20.444-9.146,11.3,22.057s15.063,22.056,18.828,40.348,7.532,26.9,7.532,26.9Z" transform="translate(-474.158 -361.067)" fill="#ffb8b8"/>
    <path id="Path_1239" data-name="Path 1239" d="M351.5,544.791l44.113-38.733-2.15-31.2H381.085l-3.768,16.139-35.506,46.8Z" transform="translate(-336.092 -366.966)" fill="#ffb8b8"/>
    <path id="Path_1240" data-name="Path 1240" d="M443.925,366.062s15.977,6.7,27.892-1.493c0,0,29.131,4.721,30.745,6.335s-1.614,50.029-1.614,50.029l-6.455,27.437s9.145,41.961-4.3,52.721l2.69,14.525s-59.714,4.3-83.384-10.221l4.3-14.526,11.3-45.727L418.1,381.663S423.48,367.138,443.925,366.062Z" transform="translate(-371.496 -309.278)" fill="#e4e4e4"/>
    <path id="Path_1241" data-name="Path 1241" d="M572.334,380.567l13.987-2.15s6.994,1.076,13.449,14.525,13.449,31.2,13.449,31.2L589.012,434.9l-19.9-31.2Z" transform="translate(-454.985 -316.522)" fill="#e4e4e4"/>
    <path id="Path_1242" data-name="Path 1242" d="M426.052,394.771l-3.228,2.69s-4.3,15.6-4.3,26.36v14.525l19.367,2.152Z" transform="translate(-376.216 -325.076)" fill="#e4e4e4"/>
    <path id="Path_1243" data-name="Path 1243" d="M484.886,281.894a9.49,9.49,0,0,1-2.366-6.4,20.292,20.292,0,0,0-.384-6.05,59.747,59.747,0,0,1,2.041-9.2c1.217-3.377.191-4.551,5.421-6.395s1.9-8.509,17.319-3.2a4.218,4.218,0,0,0,4.588.939c2.847-1.043,4.562,2.868,4.562,2.868s1.776-1.457,2.772.058,5.815-1.937,7.583,9.081-4.3,20.844-4.3,20.844-.851-17.632-10.865-17.952-21.338-4.113-22.742,3.312A54.132,54.132,0,0,1,484.886,281.894Z" transform="translate(-409.492 -248.636)" fill="#2f2e41"/>
    <circle id="Ellipse_112" data-name="Ellipse 112" cx="8.346" cy="8.346" r="8.346" transform="translate(0 169.372)" fill="#ffb8b8"/>
  </g>
  <path id="Path_1259" data-name="Path 1259" d="M208.56,646.26l137.457-27.438L334.53,561.276,197.073,588.712Z" transform="translate(-195.948 -338.728)" fill="#fff"/>
  <path id="Path_1260" data-name="Path 1260" d="M345.908,618.338,206.576,646.152l-11.862-59.425,139.332-27.813ZM208.077,643.9l135.582-27.064-11.114-55.673L196.964,588.229Z" transform="translate(-194.714 -337.493)" fill="#e4e4e4"/>
  <g id="Group_77" data-name="Group 77" transform="translate(29.33 239.161)">
    <path id="Path_1230" data-name="Path 1230" d="M284.312,658.311l-.056.024c-.448.185-.9.359-1.369.512-.157.053-.319.1-.477.15s-.32.1-.484.142c-.266.076-.537.144-.811.207-.117.03-.24.056-.358.081l-.071.015c-.146.031-.293.062-.44.089l-.381.067c-.071.015-.141.025-.21.035a20.3,20.3,0,1,1,3.153-39.346,20.3,20.3,0,0,0,7.306,34.355,20.2,20.2,0,0,1-5.8,3.671Z" transform="translate(-256.212 -608.232)" fill="#2f77b6"/>
    <path id="Path_1231" data-name="Path 1231" d="M341.806,641.931a19.812,19.812,0,0,0,2.75,1.129,20.189,20.189,0,0,1-9.357,4.786l-.255.054a20.3,20.3,0,1,1,2.306-39.195,20.258,20.258,0,0,0,4.556,33.225Z" transform="translate(-284.688 -602.174)" fill="#2f77b6"/>
    <path id="Path_1232" data-name="Path 1232" d="M405.287,612.189a20.3,20.3,0,1,1-24.075-15.63h0A20.3,20.3,0,0,1,405.287,612.189Z" transform="translate(-313.186 -596.11)" fill="#2f77b6"/>
    <path id="Path_1233" data-name="Path 1233" d="M412.162,645.674a13.594,13.594,0,0,1,.3,2.733,20.334,20.334,0,0,1-15.532,3.3,13.6,13.6,0,0,1-.839-2.618c-.993-4.67.546-9.123,3.54-11.137a6.282,6.282,0,1,1,4.765-1.013C407.952,637.563,411.169,641,412.162,645.674Z" transform="translate(-328.561 -611.484)" fill="#fff"/>
    <path id="Path_1234" data-name="Path 1234" d="M356.648,657.42l.013.062a20.746,20.746,0,0,1,.231,3.409c-2.1,1.475-4.453,1.9-7.106,2.5l-.255.054a20.215,20.215,0,0,1-8.1.073,2.117,2.117,0,0,1-.095-.237,13.012,13.012,0,0,1-.743-2.381c-.993-4.67.546-9.123,3.54-11.137A6.281,6.281,0,0,1,344,637.448a6.065,6.065,0,0,1,1.464-.133,20.274,20.274,0,0,0,11.183,20.106Z" transform="translate(-299.53 -617.662)" fill="#fff"/>
    <path id="Path_1235" data-name="Path 1235" d="M303.189,669.144a13.031,13.031,0,0,1,.251,2.456,20.228,20.228,0,0,1-5.23,2.634c-.157.053-.319.1-.477.15s-.32.1-.484.142c-.266.077-.537.144-.811.207-.056.017-.117.03-.174.042l-.255.054c-.146.031-.293.062-.44.089l-.381.066c-.071.015-.141.025-.21.035a20.116,20.116,0,0,1-7.07-.117.082.082,0,0,1-.012-.032,1.578,1.578,0,0,1-.083-.2,13.008,13.008,0,0,1-.743-2.381c-.993-4.67.546-9.123,3.54-11.137a6.281,6.281,0,0,1-.129-12.314,6.153,6.153,0,0,1,1.034-.131,20.275,20.275,0,0,0,11.674,20.441Z" transform="translate(-271.534 -623.62)" fill="#fff"/>
  </g>
  <path id="Path_1265" data-name="Path 1265" d="M752.061,461.117a6.8,6.8,0,0,1-.138,1.368,10.169,10.169,0,0,1-7.941,0,6.8,6.8,0,0,1-.138-1.368,5.347,5.347,0,0,1,2.89-5.08,3.141,3.141,0,1,1,2.436,0A5.346,5.346,0,0,1,752.061,461.117Z" transform="translate(-481.951 -280.522)" fill="#2f77b6"/>
  <path id="Path_1266" data-name="Path 1266" d="M752.061,548.1a6.8,6.8,0,0,1-.138,1.368,10.169,10.169,0,0,1-7.941,0,6.8,6.8,0,0,1-.138-1.368,5.347,5.347,0,0,1,2.89-5.08,3.141,3.141,0,1,1,2.436,0A5.346,5.346,0,0,1,752.061,548.1Z" transform="translate(-481.951 -326.023)" fill="#2f77b6"/>
  <path id="Path_1267" data-name="Path 1267" d="M752.061,633.361a6.805,6.805,0,0,1-.138,1.368,10.169,10.169,0,0,1-7.941,0,6.8,6.8,0,0,1-.138-1.368,5.347,5.347,0,0,1,2.89-5.08,3.142,3.142,0,1,1,2.436,0A5.346,5.346,0,0,1,752.061,633.361Z" transform="translate(-481.951 -370.619)" fill="#2f77b6"/>
  <circle id="Ellipse_113" data-name="Ellipse 113" cx="7.631" cy="7.631" r="7.631" transform="translate(241.373 261.415)" fill="#ffb8b8"/>
</svg>
