<svg xmlns="http://www.w3.org/2000/svg" width="51.386" height="54.871" viewBox="0 0 51.386 54.871">
  <g id="Safe" transform="translate(-1.75 -1.9)">
    <path id="Path_383" data-name="Path 383" d="M51.632,49.459a3.1,3.1,0,0,0-2.762-.5L36.4,52.63H29.5L24.59,49.9H33.8A.909.909,0,0,0,34.712,49V46.269a.939.939,0,0,0-.264-.645l-1.817-1.817a.921.921,0,0,0-.463-.245l-13.63-2.726a1.231,1.231,0,0,0-.182-.018H12.9a.851.851,0,0,0-.336.064L9.269,42.2V40.817a.909.909,0,0,0-.763-.9l-5.452-.909a.944.944,0,0,0-.736.209A.919.919,0,0,0,2,39.909V58.082a.909.909,0,0,0,.909.909.781.781,0,0,0,.145-.009l5.452-.909a.909.909,0,0,0,.763-.9v-.909H11.85l10.759,3.589a1.077,1.077,0,0,0,.291.045H36.53a.835.835,0,0,0,.3-.055L50.8,54.92a3.134,3.134,0,0,0,2.09-2.953A3.1,3.1,0,0,0,51.632,49.459ZM50.2,53.2l-13.821,4.88H23.045L12.286,54.493A1.078,1.078,0,0,0,12,54.447H9.269V44.161l3.807-1.527h5.189l13.276,2.653,1.354,1.354v1.445H21.082a.909.909,0,0,0-.445,1.7l8.178,4.543a.861.861,0,0,0,.445.118H36.53a.784.784,0,0,0,.254-.036l12.6-3.707a1.284,1.284,0,0,1,1.154.209A1.314,1.314,0,0,1,50.2,53.2Z" transform="translate(0 -3.379)" fill="#3a9cd8" stroke="#fff" stroke-linecap="round" stroke-linejoin="round" stroke-width="0.5"/>
    <path id="Path_384" data-name="Path 384" d="M30.539,36.53c8.016,0,14.539-8.561,14.539-19.082V6.543a.909.909,0,0,0-.674-.878L30.773,2.031a.909.909,0,0,0-.469,0L16.674,5.666A.909.909,0,0,0,16,6.543v10.9C16,27.969,22.522,36.53,30.539,36.53ZM17.817,7.242,30.539,3.849,43.26,7.242V17.447c0,9.52-5.706,17.265-12.721,17.265S17.817,26.968,17.817,17.447Z" transform="translate(-1.279 0)" fill="#3a9cd8" stroke="#fff" stroke-linecap="round" stroke-linejoin="round" stroke-width="0.2"/>
    <path id="Path_385" data-name="Path 385" d="M26.042,19.908v1.825a1.217,1.217,0,0,0,1.217,1.217h2.433a1.217,1.217,0,0,0,1.217-1.217V19.908h1.825a1.217,1.217,0,0,0,1.217-1.217V16.258a1.217,1.217,0,0,0-1.217-1.217H30.908V13.217A1.217,1.217,0,0,0,29.692,12H27.258a1.217,1.217,0,0,0-1.217,1.217v1.825H24.217A1.217,1.217,0,0,0,23,16.258v2.433a1.217,1.217,0,0,0,1.217,1.217Z" transform="translate(0.785 1.79)" fill="#3a9cd8"/>
    <path id="Path_386" data-name="Path 386" d="M51.817,7.452h1.817V5.635h1.817V3.817H53.635V2H51.817V3.817H50V5.635h1.817Z" transform="translate(-4.384)" fill="#3a9cd8"/>
    <path id="Path_388" data-name="Path 388" d="M47.817,33v1.817H46v1.817h1.817v1.817h1.817V36.635h1.817V34.817H49.635V33Z" transform="translate(-4.018 -2.831)" fill="#3a9cd8"/>
    <path id="Path_390" data-name="Path 390" d="M9.817,7.452h1.817V5.635h1.817V3.817H11.635V2H9.817V3.817H8V5.635H9.817Z" transform="translate(-0.548)" fill="#3a9cd8"/>
    <path id="Path_392" data-name="Path 392" d="M13.817,33v1.817H12v1.817h1.817v1.817h1.817V36.635h1.817V34.817H15.635V33Z" transform="translate(-0.913 -2.831)" fill="#3a9cd8"/>
  </g>
</svg>
