<svg xmlns="http://www.w3.org/2000/svg" width="50" height="50" viewBox="0 0 50 50">
  <g id="Group_5571" data-name="Group 5571" transform="translate(-95 -20)">
    <path id="Polygon_19" data-name="Polygon 19" d="M22.642,1.722a4,4,0,0,1,4.717,0l1.589,1.16a4,4,0,0,0,2.936.727l1.94-.283a4,4,0,0,1,4.166,2.191l.887,1.8a4,4,0,0,0,2.248,2L43,9.988a4,4,0,0,1,2.658,3.86l-.047,2.046a4,4,0,0,0,1.057,2.8l1.38,1.5a4,4,0,0,1,.562,4.639l-.989,1.8a4,4,0,0,0-.358,2.968l.534,1.984a4,4,0,0,1-1.655,4.375l-1.682,1.113a4,4,0,0,0-1.7,2.474l-.437,1.982a4,4,0,0,1-3.512,3.119l-1.964.194a4,4,0,0,0-2.67,1.408L32.9,47.766A4,4,0,0,1,28.326,48.9l-1.813-.741a4,4,0,0,0-3.027,0l-1.813.741A4,4,0,0,1,17.1,47.766l-1.276-1.52a4,4,0,0,0-2.67-1.408l-1.964-.194a4,4,0,0,1-3.512-3.119l-.437-1.982a4,4,0,0,0-1.7-2.474L3.857,35.955A4,4,0,0,1,2.2,31.581L2.735,29.6a4,4,0,0,0-.358-2.968l-.989-1.8a4,4,0,0,1,.562-4.639l1.38-1.5a4,4,0,0,0,1.057-2.8L4.34,13.848A4,4,0,0,1,7,9.988L8.877,9.32a4,4,0,0,0,2.248-2l.887-1.8a4,4,0,0,1,4.166-2.191l1.94.283a4,4,0,0,0,2.936-.727Z" transform="translate(95 20)" fill="#16cb0e"/>
    <path id="Path_2821" data-name="Path 2821" d="M106.816,43.194l8.045,8.045,16.253-16.253" transform="translate(0.684 1.514)" fill="none" stroke="#fff" stroke-linecap="round" stroke-linejoin="round" stroke-width="4"/>
  </g>
</svg>
