<svg xmlns="http://www.w3.org/2000/svg" width="106.5" height="98.469" viewBox="0 0 106.5 98.469">
  <g id="Group_5774" data-name="Group 5774" transform="translate(-278.25 -385)">
    <g id="Group_5770" data-name="Group 5770">
      <path id="blob_2_" data-name="blob (2)" d="M9.076-48.753c9.77,13.362,18.318,26.58,16.02,37.858C22.869.312,9.867,9.435-3.5,14.679s-27.154,6.537-41.091,2.155C-58.451,12.452-72.531,2.395-78.206-12.4c-5.6-14.8-2.8-34.41,7.9-47.915C-59.672-73.824-41.281-81.3-26.483-78.35-11.756-75.4-.694-62.043,9.076-48.753Z" transform="translate(359.276 463.988)" fill="#caecf2" opacity="0.25"/>
      <g id="calendar" transform="translate(304.448 408.358)">
        <rect id="Rectangle_180" data-name="Rectangle 180" width="50" height="49" rx="2" transform="translate(2.552 7.642)" fill="none" stroke="#3a9cd8" stroke-linecap="round" stroke-linejoin="round" stroke-width="2.5"/>
        <line id="Line_6" data-name="Line 6" y2="12" transform="translate(38.552 1.642)" fill="none" stroke="#3a9cd8" stroke-linecap="round" stroke-linejoin="round" stroke-width="2.5"/>
        <line id="Line_7" data-name="Line 7" y2="12" transform="translate(16.552 1.642)" fill="none" stroke="#3a9cd8" stroke-linecap="round" stroke-linejoin="round" stroke-width="2.5"/>
        <line id="Line_8" data-name="Line 8" x2="50" transform="translate(2.552 23.642)" fill="none" stroke="#3a9cd8" stroke-linecap="round" stroke-linejoin="round" stroke-width="2.5"/>
      </g>
    </g>
  </g>
</svg>
