<svg xmlns="http://www.w3.org/2000/svg" width="121.996" height="85.167" viewBox="0 0 121.996 85.167">
  <g id="Group_5773" data-name="Group 5773" transform="translate(-506 -391)">
    <path id="blob_3_" data-name="blob (3)" d="M6.8-35.129c11.032,3,25.367,8.406,31.746,18.988s4.878,26.418-3.978,34.373S9.5,26.337-4.911,31.741C-19.4,37.144-32,47.876-42.211,46.525-52.493,45.1-60.223,31.665-67.8,18.231S-82.663-8.561-78.16-17.492c4.428-8.856,20.639-13.284,32.347-16.211s18.838-4.353,26.268-4.728C-12.041-38.807-4.236-38.131,6.8-35.129Z" transform="translate(585.545 429.526)" fill="#caecf2" opacity="0.25"/>
    <path id="noun-doctor-4632582" d="M155.85,36.681v6.125a10.5,10.5,0,0,0,21,0V36.681a10.5,10.5,0,0,0-21,0ZM166.4,28.339a8.326,8.326,0,0,1,8.347,7.907,7.752,7.752,0,0,1-4.319-1.743,4.756,4.756,0,0,1-1.3-1.592,1.044,1.044,0,0,0-1.584-.424A20.832,20.832,0,0,1,157.969,36a8.358,8.358,0,0,1,8.427-7.656Zm1.536,6.31a3.978,3.978,0,0,0,1.138,1.44,10.1,10.1,0,0,0,5.7,2.252v4.465a8.416,8.416,0,0,1-16.832,0V38.094a20.5,20.5,0,0,0,10-3.445ZM155.819,55.443a10.094,10.094,0,0,0-6.589,2.24,12.025,12.025,0,0,0-3.362,4.8,20.413,20.413,0,0,0-1.409,6.779v15.37h-1.376a1.043,1.043,0,0,0,0,2.086h47.475a1.043,1.043,0,0,0,0-2.085H188.25V69.006a17.786,17.786,0,0,0-1.54-6.687,11.466,11.466,0,0,0-10.975-6.874H171.41a1.04,1.04,0,0,0-.831.424l-4.533,6.088-4.333-6.072a1.045,1.045,0,0,0-.855-.44Zm.615,2.087h3.893l4.718,6.61V84.635H153.078v-7.3a1.043,1.043,0,1,0-2.085,0v7.3h-4.449V69.275a18.583,18.583,0,0,1,1.254-6,10.024,10.024,0,0,1,2.763-3.987,7.441,7.441,0,0,1,3.787-1.647v7.113a4.394,4.394,0,1,0,2.085,0Zm15.5,0h2.024v7.218a4.416,4.416,0,0,0-3.356,4.264v2.2a1.043,1.043,0,0,0,2.085,0v-2.2a2.313,2.313,0,1,1,4.626,0v2.454a1.043,1.043,0,0,0,2.085,0V69.012a4.419,4.419,0,0,0-3.356-4.262V57.54c5.12.107,7.464,2.812,8.766,5.647a15.977,15.977,0,0,1,1.354,5.826V84.634H182.17v-7.3a1.04,1.04,0,1,0-2.079,0v7.3H167.132V63.984ZM155.387,66.7a2.313,2.313,0,1,1-2.309,2.317A2.305,2.305,0,0,1,155.387,66.7Z" transform="translate(399.958 377.746)" fill="#3a9cd8"/>
  </g>
</svg>
