<svg xmlns="http://www.w3.org/2000/svg" width="90.414" height="89.276" viewBox="0 0 90.414 89.276">
  <g id="Group_5771" data-name="Group 5771" transform="translate(-990 -389)">
    <path id="blob_5_" data-name="blob (5)" d="M2.814-58.516c8.649,3.276,17.559,8.387,20.7,15.921,3.21,7.6.655,17.559-1.441,27.191-2.1,9.566-3.8,18.739-8.583,26.535S.849,25.349-7.734,26.922c-8.649,1.572-18.083-1.7-22.866-8.649C-35.318,11.262-35.449.583-40.822-5.576c-5.438-6.159-16.118-7.731-21.163-12.842-4.979-5.176-4.193-13.825.524-19.2,4.783-5.438,13.563-7.469,20.7-11.4,7.207-3.866,12.711-9.7,19.656-11.859C-14.221-63.1-5.834-61.726,2.814-58.516Z" transform="translate(1055.375 450.967)" fill="#caecf2" opacity="0.25"/>
    <g id="noun-video-call-4643830" transform="translate(910.501 380.75)">
      <path id="Path_2738" data-name="Path 2738" d="M121.979,76.247a.943.943,0,1,1-.276-.667A.943.943,0,0,1,121.979,76.247Zm14.15-31.13a3.777,3.777,0,1,1,1.106,2.667A3.775,3.775,0,0,1,136.13,45.117Zm1.887,0a1.888,1.888,0,1,0,.553-1.334,1.887,1.887,0,0,0-.553,1.334ZM147.45,57.38v1.887a.943.943,0,0,1-.943.943H133.3a.943.943,0,0,1-.943-.943V57.38a7.547,7.547,0,0,1,15.094,0Zm-1.887,0a5.66,5.66,0,0,0-11.32,0v.943h11.32Zm12.263-18.867V63.04a2.833,2.833,0,0,1-2.83,2.83H137.073V78.134a2.833,2.833,0,0,1-2.83,2.83H107.829a2.833,2.833,0,0,1-2.83-2.83V29.08a2.833,2.833,0,0,1,2.83-2.83h26.414a2.833,2.833,0,0,1,2.83,2.83v6.6H155a2.833,2.833,0,0,1,2.83,2.83Zm-43.394-8.49h13.207V28.137H114.433Zm20.754,35.847h-6.212l-5.384,5.384a.926.926,0,0,1-1.028.2.944.944,0,0,1-.582-.871V38.514a2.833,2.833,0,0,1,2.83-2.83h10.377v-6.6a.945.945,0,0,0-.943-.943h-4.717v1.887a1.888,1.888,0,0,1-1.887,1.887H114.433a1.888,1.888,0,0,1-1.887-1.887V28.137h-4.717a.945.945,0,0,0-.943.943V78.134a.945.945,0,0,0,.943.943h26.414a.945.945,0,0,0,.943-.943ZM155.94,38.513A.945.945,0,0,0,155,37.57H124.81a.945.945,0,0,0-.943.943v29.8l4.05-4.05h0a.944.944,0,0,1,.667-.276H155a.945.945,0,0,0,.943-.943Z" fill="#3a9cd8"/>
    </g>
  </g>
</svg>
