<svg id="translate_black_24dp" xmlns="http://www.w3.org/2000/svg" width="20" height="20" viewBox="0 0 20 20">
  <path id="Path_6574" data-name="Path 6574" d="M0,0H20V20H0Z" fill="none"/>
  <path id="Path_6575" data-name="Path 6575" d="M10.712,12.456,8.634,10.448l.025-.024A13.938,13.938,0,0,0,11.694,5.2h2.4V3.6H8.364V2H6.727V3.6H1V5.192h9.139A12.513,12.513,0,0,1,7.545,9.48,12.511,12.511,0,0,1,5.655,6.8H4.019a14.023,14.023,0,0,0,2.438,3.648L2.293,14.464,3.455,15.6l4.091-4,2.545,2.488.622-1.632ZM15.318,8.4H13.682L10,18h1.636l.916-2.4h3.886l.925,2.4H19ZM13.175,14,14.5,10.536,15.825,14H13.175Z" fill="#2f77b6"/>
</svg>
