<svg xmlns="http://www.w3.org/2000/svg" width="66.003" height="50.884" viewBox="0 0 66.003 50.884">
  <g id="undraw_Devices_re_dxae" transform="translate(-55.06 0.25)">
    <path id="Path_337" data-name="Path 337" d="M517.837,265.834v26.6H465v-26.6Z" transform="translate(-399.666 -263.096)" fill="#fff" stroke="#3a9cd8" stroke-width="0.5"/>
    <path id="Path_338" data-name="Path 338" d="M498.212,277.118h-45.4v-.185h45.215V245.6a1.392,1.392,0,0,0-1.39-1.391H441.109a1.392,1.392,0,0,0-1.39,1.391v32.009h-.185V245.6a1.578,1.578,0,0,1,1.576-1.576h55.527a1.578,1.578,0,0,1,1.576,1.576Z" transform="translate(-377.398 -244.024)" fill="#3a9cd8" stroke="#3a9cd8" stroke-width="0.5"/>
    <path id="Union_3" data-name="Union 3" d="M45.586,5.84H4.319A4.316,4.316,0,0,1,0,1.538V0H58.679V1.538a4.307,4.307,0,0,1-4.3,4.3Zm8.791-.185a4.121,4.121,0,0,0,4.116-4.117V.185H.186V1.538A4.13,4.13,0,0,0,4.319,5.655H54.377Z" transform="translate(62.134 32.909)" fill="#3a9cd8" stroke="#3a9cd8" stroke-width="0.5"/>
    <path id="Path_340" data-name="Path 340" d="M595.623,560.439a14.361,14.361,0,0,1-4.283-9.085H574.455a12.509,12.509,0,0,1-4.371,9.075l-.285.01a12.4,12.4,0,0,0,4.475-9.181l0-.089h17.228l.01.082a14.181,14.181,0,0,0,4.362,9.173Z" transform="translate(-491.309 -512.606)" fill="#3a9cd8" stroke="#3a9cd8" stroke-width="0.5"/>
    <g id="Group_63" data-name="Group 63" transform="translate(55.31 23.198)">
      <path id="Path_355" data-name="Path 355" d="M242.328,466.632h-8.61a2.448,2.448,0,0,1-2.445-2.445v-22.3a2.448,2.448,0,0,1,2.445-2.445h8.61a2.448,2.448,0,0,1,2.445,2.445v3.99a.242.242,0,0,1,.148.223v2.6a.241.241,0,0,1-.148.222v15.265A2.448,2.448,0,0,1,242.328,466.632Z" transform="translate(-231.273 -439.446)" fill="#fff" stroke="#3a9cd8" stroke-width="0.5"/>
      <path id="Path_344" data-name="Path 344" d="M242.328,466.632h-8.61a2.448,2.448,0,0,1-2.445-2.445v-22.3a2.448,2.448,0,0,1,2.445-2.445h8.61a2.448,2.448,0,0,1,2.445,2.445v3.99a.242.242,0,0,1,.148.223v2.6a.241.241,0,0,1-.148.222v15.265A2.448,2.448,0,0,1,242.328,466.632Zm-8.61-27a2.262,2.262,0,0,0-2.26,2.259v22.3a2.262,2.262,0,0,0,2.26,2.26h8.61a2.262,2.262,0,0,0,2.26-2.26V448.755h.093a.056.056,0,0,0,.056-.056v-2.6a.056.056,0,0,0-.056-.056h-.093v-4.157a2.262,2.262,0,0,0-2.26-2.26Z" transform="translate(-231.273 -439.446)" fill="#3a9cd8"/>
      <g id="Path_345" data-name="Path 345" transform="translate(-236.439 -444.353)" fill="#fff">
        <path d="M 247.5894165039062 470.7349243164062 L 238.9374694824219 470.7349243164062 C 238.0240173339844 470.7349243164062 237.2808837890625 469.9917297363281 237.2808837890625 469.0782165527344 L 237.2808837890625 446.8146057128906 C 237.2808837890625 445.9011535644531 238.0240173339844 445.1580200195312 238.9374694824219 445.1580200195312 L 239.8504943847656 445.1580200195312 C 239.7908325195312 445.4094543457031 239.837646484375 445.6762390136719 239.984375 445.8945617675781 C 240.1582641601562 446.1532592773438 240.4482116699219 446.3077392578125 240.7599792480469 446.3077392578125 L 245.6927795410156 446.3077392578125 C 246.0045318603516 446.3077392578125 246.2944946289062 446.1532592773438 246.4683990478516 445.8945617675781 C 246.6151275634766 445.6762084960938 246.6619415283203 445.409423828125 246.6022796630859 445.1580200195312 L 247.5894165039062 445.1580200195312 C 248.5028839111328 445.1580810546875 249.2460327148438 445.9012145996094 249.2460327148438 446.8146057128906 L 249.2460327148438 469.0782165527344 C 249.2460327148438 469.9917297363281 248.5028839111328 470.7349243164062 247.5894165039062 470.7349243164062 Z" stroke="none"/>
        <path d="M 238.9374694824219 445.2580261230469 C 238.0791625976562 445.2580261230469 237.3808746337891 445.956298828125 237.3808746337891 446.8146057128906 L 237.3808746337891 469.0782165527344 C 237.3808746337891 469.9365844726562 238.0791625976562 470.6349182128906 238.9374694824219 470.6349182128906 L 247.5894165039062 470.6349182128906 C 248.4477386474609 470.6349182128906 249.1460418701172 469.9365844726562 249.1460418701172 469.0782165527344 L 249.1460418701172 446.8146057128906 C 249.1460418701172 445.9563598632812 248.4477386474609 445.258056640625 247.5894165039062 445.2580261230469 L 246.7210388183594 445.2580261230469 C 246.7481079101562 445.4985656738281 246.6900634765625 445.7439880371094 246.5513916015625 445.9503479003906 C 246.3588714599609 446.2367553710938 246.0379028320312 446.4077453613281 245.6927795410156 446.4077453613281 L 240.7599792480469 446.4077453613281 C 240.4148559570312 446.4077453613281 240.0939025878906 446.2367553710938 239.9013824462891 445.9503173828125 C 239.7627105712891 445.7439880371094 239.7046508789062 445.4985961914062 239.7317352294922 445.2580261230469 L 238.9374694824219 445.2580261230469 M 238.9374694824219 445.0580139160156 L 239.9872436523438 445.0580139160156 C 239.8822937011719 445.3153381347656 239.9123229980469 445.6080627441406 240.0673828125 445.8387756347656 C 240.222412109375 446.0694274902344 240.4821166992188 446.2077331542969 240.7599792480469 446.2077331542969 L 245.6927795410156 446.2077331542969 C 245.9706726074219 446.2077331542969 246.2304077148438 446.0693664550781 246.3854064941406 445.8387756347656 C 246.5404357910156 445.6080627441406 246.5704650878906 445.3153381347656 246.4655151367188 445.0580139160156 L 247.5894165039062 445.0580139160156 C 248.5596008300781 445.0580749511719 249.3460388183594 445.8445129394531 249.3460388183594 446.8146057128906 L 249.3460388183594 469.0782165527344 C 249.3460388183594 470.0483703613281 248.5596008300781 470.8349304199219 247.5894165039062 470.8349304199219 L 238.9374694824219 470.8349304199219 C 237.9673156738281 470.8349304199219 237.1808776855469 470.0483703613281 237.1808776855469 469.0782165527344 L 237.1808776855469 446.8146057128906 C 237.1808776855469 445.8444519042969 237.9673156738281 445.0580139160156 238.9374694824219 445.0580139160156 Z" stroke="none" fill="#3a9cd8"/>
      </g>
    </g>
    <g id="Rectangle_17" data-name="Rectangle 17" transform="translate(76.509 47.741)" fill="#fff" stroke="#3a9cd8" stroke-width="0.5">
      <rect width="29.928" height="2.644" rx="1.322" stroke="none"/>
      <rect x="0.25" y="0.25" width="29.428" height="2.144" rx="1.072" fill="none"/>
    </g>
  </g>
</svg>
