<svg id="verified_user_black_24dp" xmlns="http://www.w3.org/2000/svg" width="12.385" height="12.385" viewBox="0 0 12.385 12.385">
  <path id="Path_2756" data-name="Path 2756" d="M0,0H12.385V12.385H0Z" fill="none"/>
  <g id="local_offer-24px" transform="translate(0.785 0.785)">
    <path id="Path_2761" data-name="Path 2761" d="M0,0H11.6V11.6H0Z" fill="none"/>
    <path id="Path_2762" data-name="Path 2762" d="M11.381,6.63,7.031,2.28A.961.961,0,0,0,6.35,2H2.967A.969.969,0,0,0,2,2.967V6.35a.965.965,0,0,0,.285.686l4.35,4.35a.961.961,0,0,0,.681.28A.945.945,0,0,0,8,11.381L11.381,8a.945.945,0,0,0,.285-.681A.976.976,0,0,0,11.381,6.63ZM3.692,4.417a.725.725,0,1,1,.725-.725A.724.724,0,0,1,3.692,4.417Z" transform="translate(-1.033 -1.033)" fill="#2b5889"/>
  </g>
</svg>
